<svg version="1.1" preserveAspectRatio="none" xmlns="http://www.w3.org/2000/svg" width="500" height="500" viewBox="0 0 500 500"><rect width="100%" height="100%" fill="#414141" fill-opacity="1"/><svg viewBox="174.9079 720.1521 276.5462 230" width="333" height="276.9519161716921" x="83.5px" y="111.524px" xmlns="http://www.w3.org/2000/svg" xmlns:xlink="http://www.w3.org/1999/xlink" preserveAspectRatio="none"><defs></defs><style>.companyName {fill:#E9E9E9;fill-opacity:1;}.icon3-str {stroke:#888888;stroke-opacity:1;}.shape {fill:#282828;fill-opacity:1;}.shapeStroke-str {stroke:#E9E9E9;stroke-opacity:1;}</style><g opacity="1" transform="rotate(0 198.1752 720.1521)">
<svg width="230.0116" height="230" x="198.1752" y="720.1521" version="1.1" preserveAspectRatio="none" viewBox="0 0 230.0116 230">
  <defs><rect x="0" y="0" width="230.0116" height="230" rx="0%" ry="0%" id="id-aPBVVfuK1759519703298"></rect></defs><use class="shape shapeStroke-str" style="stroke-width:0;" xlink:href="#id-aPBVVfuK1759519703298"></use>
</svg>
</g><g opacity="1" transform="rotate(0 174.9079 770.1521)">
<svg width="276.5462" height="130" x="174.9079" y="770.1521" version="1.1" preserveAspectRatio="none" viewBox="2.4 -26.4 56.160000000000004 26.4">
  <g transform="matrix(1 0 0 1 0 0)" class="companyName"><path id="id-D6z1nYkh2" d="M13.08 0L2.40 0L2.40-0.64L5.64-2.24L5.64-24.16L2.40-25.76L2.40-26.40L13.08-26.40L13.08-25.76L9.84-24.16L9.84-2.24L13.08-0.64L13.08 0ZM22.24 0L9.84-13.48L20.88-24.40L18.04-25.76L18.04-26.40L26.68-26.40L26.68-25.76L24.16-24.76L13.92-14.72L26.24-1.72L28.76-0.64L28.76 0L22.24 0Z M44.12 0L33.68 0L33.68-0.64L36.92-2.24L36.92-24.16L33.68-25.76L33.68-26.40L44.80-26.40Q49-26.40 51.42-24.66Q53.84-22.92 53.84-19.88L53.84-19.88Q53.84-17.64 52.32-15.92Q50.80-14.20 48.32-13.28L48.32-13.28L55.88-2.12L58.56-0.64L58.56 0L52.12 0L44.44-12.16L41.12-12.16L41.12-2.28L44.12-0.64L44.12 0ZM43.48-24.20L43.48-24.20L41.12-24.20L41.12-14.28L43.72-14.28Q46.20-14.28 47.82-15.70Q49.44-17.12 49.44-19.32L49.44-19.32Q49.44-21.60 47.86-22.90Q46.28-24.20 43.48-24.20Z"/></g>
</svg>
</g></svg></svg>